<mxfile host="app.diagrams.net" agent="Mozilla/5.0 (Macintosh; Intel Mac OS X 10_15_7) AppleWebKit/537.36 (KHTML, like Gecko) Chrome/128.0.0.0 Safari/537.36" version="24.7.17">
  <diagram name="Page-1" id="sfgAWyiOW3c3TnRp0a8o">
    <mxGraphModel dx="1322" dy="598" grid="1" gridSize="10" guides="1" tooltips="1" connect="1" arrows="1" fold="1" page="1" pageScale="1" pageWidth="850" pageHeight="1100" math="0" shadow="0">
      <root>
        <mxCell id="0" />
        <mxCell id="1" parent="0" />
        <mxCell id="Ff5ZT78EmFI4TPjBJLDV-1" value="Canal" style="rounded=0;whiteSpace=wrap;html=1;" vertex="1" parent="1">
          <mxGeometry x="10" y="560" width="120" height="60" as="geometry" />
        </mxCell>
        <mxCell id="Ff5ZT78EmFI4TPjBJLDV-2" value="ASO" style="rounded=0;whiteSpace=wrap;html=1;" vertex="1" parent="1">
          <mxGeometry x="150" y="415" width="100" height="350" as="geometry" />
        </mxCell>
        <mxCell id="Ff5ZT78EmFI4TPjBJLDV-3" value="F5 Bal" style="rounded=0;whiteSpace=wrap;html=1;" vertex="1" parent="1">
          <mxGeometry x="420" y="140" width="40" height="120" as="geometry" />
        </mxCell>
        <mxCell id="Ff5ZT78EmFI4TPjBJLDV-9" value="" style="group" vertex="1" connectable="0" parent="1">
          <mxGeometry x="495" y="90" width="140" height="180" as="geometry" />
        </mxCell>
        <mxCell id="Ff5ZT78EmFI4TPjBJLDV-5" value="" style="rounded=0;whiteSpace=wrap;html=1;fillStyle=solid;fillColor=#46A0F0;" vertex="1" parent="Ff5ZT78EmFI4TPjBJLDV-9">
          <mxGeometry x="30" width="110" height="150" as="geometry" />
        </mxCell>
        <mxCell id="Ff5ZT78EmFI4TPjBJLDV-6" value="" style="rounded=0;whiteSpace=wrap;html=1;fillStyle=solid;fillColor=#46A0F0;" vertex="1" parent="Ff5ZT78EmFI4TPjBJLDV-9">
          <mxGeometry x="20" y="10" width="110" height="150" as="geometry" />
        </mxCell>
        <mxCell id="Ff5ZT78EmFI4TPjBJLDV-7" value="" style="rounded=0;whiteSpace=wrap;html=1;fillStyle=solid;fillColor=#46A0F0;" vertex="1" parent="Ff5ZT78EmFI4TPjBJLDV-9">
          <mxGeometry x="10" y="20" width="110" height="150" as="geometry" />
        </mxCell>
        <mxCell id="Ff5ZT78EmFI4TPjBJLDV-8" value="LLfirma&lt;div&gt;7050&lt;/div&gt;" style="rounded=0;whiteSpace=wrap;html=1;" vertex="1" parent="Ff5ZT78EmFI4TPjBJLDV-9">
          <mxGeometry y="30" width="110" height="150" as="geometry" />
        </mxCell>
        <mxCell id="Ff5ZT78EmFI4TPjBJLDV-10" value="F5 Bal" style="rounded=0;whiteSpace=wrap;html=1;" vertex="1" parent="1">
          <mxGeometry x="545" y="340" width="40" height="120" as="geometry" />
        </mxCell>
        <mxCell id="Ff5ZT78EmFI4TPjBJLDV-11" value="" style="group" vertex="1" connectable="0" parent="1">
          <mxGeometry x="647" y="294" width="140" height="180" as="geometry" />
        </mxCell>
        <mxCell id="Ff5ZT78EmFI4TPjBJLDV-12" value="" style="rounded=0;whiteSpace=wrap;html=1;fillColor=#46A0F0;" vertex="1" parent="Ff5ZT78EmFI4TPjBJLDV-11">
          <mxGeometry x="30" width="110" height="150" as="geometry" />
        </mxCell>
        <mxCell id="Ff5ZT78EmFI4TPjBJLDV-13" value="" style="rounded=0;whiteSpace=wrap;html=1;fillColor=#46A0F0;" vertex="1" parent="Ff5ZT78EmFI4TPjBJLDV-11">
          <mxGeometry x="20" y="10" width="110" height="150" as="geometry" />
        </mxCell>
        <mxCell id="Ff5ZT78EmFI4TPjBJLDV-14" value="" style="rounded=0;whiteSpace=wrap;html=1;fillColor=#46A0F0;" vertex="1" parent="Ff5ZT78EmFI4TPjBJLDV-11">
          <mxGeometry x="10" y="20" width="110" height="150" as="geometry" />
        </mxCell>
        <mxCell id="Ff5ZT78EmFI4TPjBJLDV-15" value="FirmDig&lt;br&gt;7060" style="rounded=0;whiteSpace=wrap;html=1;" vertex="1" parent="Ff5ZT78EmFI4TPjBJLDV-11">
          <mxGeometry y="30" width="110" height="150" as="geometry" />
        </mxCell>
        <mxCell id="Ff5ZT78EmFI4TPjBJLDV-16" value="" style="endArrow=classic;html=1;rounded=0;exitX=1;exitY=0.5;exitDx=0;exitDy=0;entryX=0;entryY=0.5;entryDx=0;entryDy=0;" edge="1" parent="1" source="Ff5ZT78EmFI4TPjBJLDV-3" target="Ff5ZT78EmFI4TPjBJLDV-8">
          <mxGeometry width="50" height="50" relative="1" as="geometry">
            <mxPoint x="396" y="202" as="sourcePoint" />
            <mxPoint x="430" y="197" as="targetPoint" />
          </mxGeometry>
        </mxCell>
        <mxCell id="Ff5ZT78EmFI4TPjBJLDV-18" value="" style="endArrow=classic;html=1;rounded=0;exitX=1;exitY=0.5;exitDx=0;exitDy=0;entryX=0;entryY=0.5;entryDx=0;entryDy=0;" edge="1" parent="1" source="Ff5ZT78EmFI4TPjBJLDV-10" target="Ff5ZT78EmFI4TPjBJLDV-15">
          <mxGeometry width="50" height="50" relative="1" as="geometry">
            <mxPoint x="615" y="600" as="sourcePoint" />
            <mxPoint x="649" y="600" as="targetPoint" />
          </mxGeometry>
        </mxCell>
        <mxCell id="Ff5ZT78EmFI4TPjBJLDV-19" value="" style="endArrow=classic;html=1;rounded=0;exitX=1;exitY=0.5;exitDx=0;exitDy=0;entryX=0;entryY=0.5;entryDx=0;entryDy=0;" edge="1" parent="1" source="Ff5ZT78EmFI4TPjBJLDV-1" target="Ff5ZT78EmFI4TPjBJLDV-2">
          <mxGeometry width="50" height="50" relative="1" as="geometry">
            <mxPoint x="400" y="600" as="sourcePoint" />
            <mxPoint x="450" y="550" as="targetPoint" />
          </mxGeometry>
        </mxCell>
        <mxCell id="Ff5ZT78EmFI4TPjBJLDV-20" value="" style="endArrow=classic;html=1;rounded=0;exitX=1;exitY=0.5;exitDx=0;exitDy=0;entryX=0;entryY=0.5;entryDx=0;entryDy=0;" edge="1" parent="1" source="Ff5ZT78EmFI4TPjBJLDV-2" target="Ff5ZT78EmFI4TPjBJLDV-48">
          <mxGeometry width="50" height="50" relative="1" as="geometry">
            <mxPoint x="440" y="600" as="sourcePoint" />
            <mxPoint x="490" y="550" as="targetPoint" />
          </mxGeometry>
        </mxCell>
        <mxCell id="Ff5ZT78EmFI4TPjBJLDV-22" value="" style="curved=1;endArrow=classic;html=1;rounded=0;exitX=1;exitY=0.5;exitDx=0;exitDy=0;entryX=0;entryY=0.5;entryDx=0;entryDy=0;" edge="1" parent="1" source="Ff5ZT78EmFI4TPjBJLDV-5" target="Ff5ZT78EmFI4TPjBJLDV-10">
          <mxGeometry width="50" height="50" relative="1" as="geometry">
            <mxPoint x="735" y="110" as="sourcePoint" />
            <mxPoint x="645" y="345" as="targetPoint" />
            <Array as="points">
              <mxPoint x="715" y="150" />
              <mxPoint x="725" y="270" />
              <mxPoint x="625" y="280" />
              <mxPoint x="495" y="350" />
            </Array>
          </mxGeometry>
        </mxCell>
        <mxCell id="Ff5ZT78EmFI4TPjBJLDV-24" value="F5 Bal" style="rounded=0;whiteSpace=wrap;html=1;" vertex="1" parent="1">
          <mxGeometry x="625" y="575" width="40" height="120" as="geometry" />
        </mxCell>
        <mxCell id="Ff5ZT78EmFI4TPjBJLDV-25" value="" style="group" vertex="1" connectable="0" parent="1">
          <mxGeometry x="700" y="540" width="140" height="180" as="geometry" />
        </mxCell>
        <mxCell id="Ff5ZT78EmFI4TPjBJLDV-26" value="" style="rounded=0;whiteSpace=wrap;html=1;fillColor=#99FF99;" vertex="1" parent="Ff5ZT78EmFI4TPjBJLDV-25">
          <mxGeometry x="30" width="110" height="150" as="geometry" />
        </mxCell>
        <mxCell id="Ff5ZT78EmFI4TPjBJLDV-27" value="" style="rounded=0;whiteSpace=wrap;html=1;fillColor=#99FF99;" vertex="1" parent="Ff5ZT78EmFI4TPjBJLDV-25">
          <mxGeometry x="20" y="10" width="110" height="150" as="geometry" />
        </mxCell>
        <mxCell id="Ff5ZT78EmFI4TPjBJLDV-28" value="" style="rounded=0;whiteSpace=wrap;html=1;fillColor=#99FF99;" vertex="1" parent="Ff5ZT78EmFI4TPjBJLDV-25">
          <mxGeometry x="10" y="20" width="110" height="150" as="geometry" />
        </mxCell>
        <mxCell id="Ff5ZT78EmFI4TPjBJLDV-29" value="IMAX EU&lt;div&gt;8020&lt;/div&gt;" style="rounded=0;whiteSpace=wrap;html=1;" vertex="1" parent="Ff5ZT78EmFI4TPjBJLDV-25">
          <mxGeometry y="30" width="110" height="150" as="geometry" />
        </mxCell>
        <mxCell id="Ff5ZT78EmFI4TPjBJLDV-30" value="" style="endArrow=classic;html=1;rounded=0;" edge="1" parent="1" source="Ff5ZT78EmFI4TPjBJLDV-24" target="Ff5ZT78EmFI4TPjBJLDV-29">
          <mxGeometry width="50" height="50" relative="1" as="geometry">
            <mxPoint x="665" y="622" as="sourcePoint" />
            <mxPoint x="725" y="637" as="targetPoint" />
          </mxGeometry>
        </mxCell>
        <mxCell id="Ff5ZT78EmFI4TPjBJLDV-31" value="&lt;meta charset=&quot;utf-8&quot;&gt;&lt;span style=&quot;color: rgb(31, 31, 31); font-family: &amp;quot;Google Sans&amp;quot;, Roboto, sans-serif; font-size: 12px; font-style: normal; font-variant-ligatures: normal; font-variant-caps: normal; font-weight: 400; letter-spacing: normal; orphans: 2; text-align: start; text-indent: 0px; text-transform: none; widows: 2; word-spacing: 0px; -webkit-text-stroke-width: 0px; white-space: pre-wrap; background-color: rgb(255, 255, 255); text-decoration-thickness: initial; text-decoration-style: initial; text-decoration-color: initial; display: inline !important; float: none;&quot;&gt;150.100.210.147:8020&lt;/span&gt;" style="text;html=1;align=center;verticalAlign=middle;whiteSpace=wrap;rounded=0;" vertex="1" parent="1">
          <mxGeometry x="485" y="640" width="150" height="30" as="geometry" />
        </mxCell>
        <mxCell id="Ff5ZT78EmFI4TPjBJLDV-32" value="" style="curved=1;endArrow=classic;html=1;rounded=0;exitX=1;exitY=0.5;exitDx=0;exitDy=0;entryX=0;entryY=0.25;entryDx=0;entryDy=0;" edge="1" parent="1" source="Ff5ZT78EmFI4TPjBJLDV-12" target="Ff5ZT78EmFI4TPjBJLDV-24">
          <mxGeometry width="50" height="50" relative="1" as="geometry">
            <mxPoint x="820" y="400" as="sourcePoint" />
            <mxPoint x="730" y="635" as="targetPoint" />
            <Array as="points">
              <mxPoint x="825" y="360" />
              <mxPoint x="855" y="410" />
              <mxPoint x="805" y="500" />
              <mxPoint x="645" y="520" />
              <mxPoint x="525" y="550" />
              <mxPoint x="565" y="600" />
            </Array>
          </mxGeometry>
        </mxCell>
        <mxCell id="Ff5ZT78EmFI4TPjBJLDV-35" value="&lt;meta charset=&quot;utf-8&quot;&gt;&lt;div style=&quot;color: #3b3b3b;background-color: #ffffff;font-family: Menlo, Monaco, &#39;Courier New&#39;, monospace;font-weight: normal;font-size: 12px;line-height: 18px;white-space: pre;&quot;&gt;&lt;div&gt;&lt;span style=&quot;color: #3b3b3b;&quot;&gt;150.100.210.22:7050&lt;/span&gt;&lt;/div&gt;&lt;div&gt;&lt;span style=&quot;color: #3b3b3b;&quot;&gt;&lt;/span&gt;&lt;/div&gt;&lt;/div&gt;" style="text;html=1;align=center;verticalAlign=middle;whiteSpace=wrap;rounded=0;" vertex="1" parent="1">
          <mxGeometry x="330" y="100" width="160" height="30" as="geometry" />
        </mxCell>
        <mxCell id="Ff5ZT78EmFI4TPjBJLDV-36" value="&lt;div style=&quot;color: #3b3b3b;background-color: #ffffff;font-family: Menlo, Monaco, &#39;Courier New&#39;, monospace;font-weight: normal;font-size: 12px;line-height: 18px;white-space: pre;&quot;&gt;&lt;div&gt;&lt;span style=&quot;color: #3b3b3b;&quot;&gt;150.100.210.22:7060&lt;/span&gt;&lt;/div&gt;&lt;div&gt;&lt;span style=&quot;color: #3b3b3b;&quot;&gt;&lt;/span&gt;&lt;/div&gt;&lt;/div&gt;" style="text;html=1;align=center;verticalAlign=middle;whiteSpace=wrap;rounded=0;" vertex="1" parent="1">
          <mxGeometry x="475" y="460" width="160" height="30" as="geometry" />
        </mxCell>
        <mxCell id="Ff5ZT78EmFI4TPjBJLDV-37" value="Text" style="text;html=1;align=center;verticalAlign=middle;whiteSpace=wrap;rounded=0;" vertex="1" parent="1">
          <mxGeometry y="430" width="60" height="30" as="geometry" />
        </mxCell>
        <mxCell id="Ff5ZT78EmFI4TPjBJLDV-38" value="&lt;div style=&quot;color: rgb(59, 59, 59); font-family: Menlo, Monaco, &amp;quot;Courier New&amp;quot;, monospace; font-weight: normal; font-size: 12px; line-height: 18px; white-space: pre;&quot;&gt;&lt;div style=&quot;&quot;&gt;&lt;span style=&quot;color: rgb(59, 59, 59); background-color: rgb(153, 255, 153);&quot;&gt;150.100.246.183&lt;/span&gt;&lt;/div&gt;&lt;div style=&quot;&quot;&gt;&lt;span style=&quot;color: rgb(59, 59, 59); background-color: rgb(153, 255, 153);&quot;&gt;150.100.246.184&lt;/span&gt;&lt;/div&gt;&lt;div style=&quot;&quot;&gt;&lt;span style=&quot;color: rgb(59, 59, 59); background-color: rgb(153, 255, 153);&quot;&gt;150.100.246.83&lt;/span&gt;&lt;/div&gt;&lt;div style=&quot;&quot;&gt;&lt;span style=&quot;color: rgb(59, 59, 59); background-color: rgb(153, 255, 153);&quot;&gt;150.100.246.98&lt;/span&gt;&lt;/div&gt;&lt;/div&gt;" style="text;whiteSpace=wrap;html=1;fillColor=#99FF99;strokeColor=#82b366;" vertex="1" parent="1">
          <mxGeometry x="80" y="790" width="140" height="100" as="geometry" />
        </mxCell>
        <mxCell id="Ff5ZT78EmFI4TPjBJLDV-39" value="Text" style="text;html=1;align=center;verticalAlign=middle;whiteSpace=wrap;rounded=0;" vertex="1" parent="1">
          <mxGeometry y="370" width="60" height="30" as="geometry" />
        </mxCell>
        <mxCell id="Ff5ZT78EmFI4TPjBJLDV-41" value="&lt;div style=&quot;color: rgb(59, 59, 59); font-family: Menlo, Monaco, &amp;quot;Courier New&amp;quot;, monospace; font-weight: normal; font-size: 12px; line-height: 18px; white-space: pre;&quot;&gt;&lt;div style=&quot;&quot;&gt;&lt;span style=&quot;color: rgb(59, 59, 59); background-color: rgb(70, 160, 240);&quot;&gt;150.100.43.176&lt;/span&gt;&lt;/div&gt;&lt;div style=&quot;&quot;&gt;&lt;span style=&quot;color: rgb(59, 59, 59); background-color: rgb(70, 160, 240);&quot;&gt;150.100.43.177&lt;/span&gt;&lt;/div&gt;&lt;div style=&quot;&quot;&gt;&lt;span style=&quot;color: rgb(59, 59, 59); background-color: rgb(70, 160, 240);&quot;&gt;150.100.43.219&lt;/span&gt;&lt;/div&gt;&lt;div style=&quot;&quot;&gt;&lt;span style=&quot;color: rgb(59, 59, 59); background-color: rgb(70, 160, 240);&quot;&gt;150.100.43.220&lt;/span&gt;&lt;/div&gt;&lt;/div&gt;" style="text;whiteSpace=wrap;html=1;fillColor=#46A0F0;strokeColor=#82b366;" vertex="1" parent="1">
          <mxGeometry x="80" y="910" width="140" height="100" as="geometry" />
        </mxCell>
        <mxCell id="Ff5ZT78EmFI4TPjBJLDV-43" value="&lt;div style=&quot;color: #3b3b3b;background-color: #ffffff;font-family: Menlo, Monaco, &#39;Courier New&#39;, monospace;font-weight: normal;font-size: 12px;line-height: 18px;white-space: pre;&quot;&gt;&lt;div&gt;&lt;span style=&quot;color: #3b3b3b;&quot;&gt;150.100.43.176&lt;/span&gt;&lt;/div&gt;&lt;div&gt;&lt;span style=&quot;color: #3b3b3b;&quot;&gt;150.100.43.177&lt;/span&gt;&lt;/div&gt;&lt;div&gt;&lt;span style=&quot;color: #3b3b3b;&quot;&gt;150.100.43.219&lt;/span&gt;&lt;/div&gt;&lt;div&gt;&lt;span style=&quot;color: #3b3b3b;&quot;&gt;150.100.43.220&lt;/span&gt;&lt;/div&gt;&lt;/div&gt;" style="text;whiteSpace=wrap;html=1;" vertex="1" parent="1">
          <mxGeometry x="517" width="130" height="100" as="geometry" />
        </mxCell>
        <mxCell id="Ff5ZT78EmFI4TPjBJLDV-44" value="&lt;div style=&quot;color: #3b3b3b;background-color: #ffffff;font-family: Menlo, Monaco, &#39;Courier New&#39;, monospace;font-weight: normal;font-size: 12px;line-height: 18px;white-space: pre;&quot;&gt;&lt;div&gt;&lt;span style=&quot;color: #3b3b3b;&quot;&gt;150.100.43.176&lt;/span&gt;&lt;/div&gt;&lt;div&gt;&lt;span style=&quot;color: #3b3b3b;&quot;&gt;150.100.43.177&lt;/span&gt;&lt;/div&gt;&lt;div&gt;&lt;span style=&quot;color: #3b3b3b;&quot;&gt;150.100.43.219&lt;/span&gt;&lt;/div&gt;&lt;div&gt;&lt;span style=&quot;color: #3b3b3b;&quot;&gt;150.100.43.220&lt;/span&gt;&lt;/div&gt;&lt;/div&gt;" style="text;whiteSpace=wrap;html=1;" vertex="1" parent="1">
          <mxGeometry x="720" y="200" width="130" height="100" as="geometry" />
        </mxCell>
        <mxCell id="Ff5ZT78EmFI4TPjBJLDV-46" value="&lt;div style=&quot;color: rgb(59, 59, 59); font-family: Menlo, Monaco, &amp;quot;Courier New&amp;quot;, monospace; text-align: left; white-space: pre;&quot;&gt;&lt;span style=&quot;background-color: rgb(255, 255, 255);&quot;&gt;150.100.246.183&lt;/span&gt;&lt;/div&gt;&lt;div style=&quot;color: rgb(59, 59, 59); font-family: Menlo, Monaco, &amp;quot;Courier New&amp;quot;, monospace; text-align: left; white-space: pre;&quot;&gt;&lt;span style=&quot;background-color: rgb(255, 255, 255);&quot;&gt;150.100.246.184&lt;/span&gt;&lt;/div&gt;&lt;div style=&quot;color: rgb(59, 59, 59); font-family: Menlo, Monaco, &amp;quot;Courier New&amp;quot;, monospace; text-align: left; white-space: pre;&quot;&gt;&lt;span style=&quot;background-color: rgb(255, 255, 255);&quot;&gt;150.100.246.83&lt;/span&gt;&lt;/div&gt;&lt;div style=&quot;color: rgb(59, 59, 59); font-family: Menlo, Monaco, &amp;quot;Courier New&amp;quot;, monospace; text-align: left; white-space: pre;&quot;&gt;&lt;span style=&quot;background-color: rgb(255, 255, 255);&quot;&gt;150.100.246.98&lt;/span&gt;&lt;/div&gt;" style="text;html=1;align=center;verticalAlign=middle;whiteSpace=wrap;rounded=0;" vertex="1" parent="1">
          <mxGeometry x="740" y="740" width="60" height="30" as="geometry" />
        </mxCell>
        <mxCell id="Ff5ZT78EmFI4TPjBJLDV-48" value="F5 Bal" style="rounded=0;whiteSpace=wrap;html=1;" vertex="1" parent="1">
          <mxGeometry x="290" y="530" width="40" height="120" as="geometry" />
        </mxCell>
        <mxCell id="Ff5ZT78EmFI4TPjBJLDV-49" value="" style="group" vertex="1" connectable="0" parent="1">
          <mxGeometry x="180" y="160" width="140" height="180" as="geometry" />
        </mxCell>
        <mxCell id="Ff5ZT78EmFI4TPjBJLDV-50" value="" style="rounded=0;whiteSpace=wrap;html=1;fillStyle=solid;fillColor=#46A0F0;" vertex="1" parent="Ff5ZT78EmFI4TPjBJLDV-49">
          <mxGeometry x="30" width="110" height="150" as="geometry" />
        </mxCell>
        <mxCell id="Ff5ZT78EmFI4TPjBJLDV-51" value="" style="rounded=0;whiteSpace=wrap;html=1;fillStyle=solid;fillColor=#46A0F0;" vertex="1" parent="Ff5ZT78EmFI4TPjBJLDV-49">
          <mxGeometry x="20" y="10" width="110" height="150" as="geometry" />
        </mxCell>
        <mxCell id="Ff5ZT78EmFI4TPjBJLDV-52" value="" style="rounded=0;whiteSpace=wrap;html=1;fillStyle=solid;fillColor=#46A0F0;" vertex="1" parent="Ff5ZT78EmFI4TPjBJLDV-49">
          <mxGeometry x="10" y="20" width="110" height="150" as="geometry" />
        </mxCell>
        <mxCell id="Ff5ZT78EmFI4TPjBJLDV-53" value="fimxLive&lt;br&gt;36010" style="rounded=0;whiteSpace=wrap;html=1;" vertex="1" parent="Ff5ZT78EmFI4TPjBJLDV-49">
          <mxGeometry y="30" width="110" height="150" as="geometry" />
        </mxCell>
        <mxCell id="Ff5ZT78EmFI4TPjBJLDV-54" value="" style="curved=1;endArrow=classic;html=1;rounded=0;exitX=1;exitY=0.5;exitDx=0;exitDy=0;entryX=0.5;entryY=1;entryDx=0;entryDy=0;" edge="1" parent="1" source="Ff5ZT78EmFI4TPjBJLDV-48" target="Ff5ZT78EmFI4TPjBJLDV-53">
          <mxGeometry width="50" height="50" relative="1" as="geometry">
            <mxPoint x="890" y="590" as="sourcePoint" />
            <mxPoint x="940" y="540" as="targetPoint" />
            <Array as="points">
              <mxPoint x="390" y="590" />
              <mxPoint x="360" y="440" />
              <mxPoint x="270" y="430" />
            </Array>
          </mxGeometry>
        </mxCell>
        <mxCell id="Ff5ZT78EmFI4TPjBJLDV-55" value="&lt;div style=&quot;color: #3b3b3b;background-color: #ffffff;font-family: Menlo, Monaco, &#39;Courier New&#39;, monospace;font-weight: normal;font-size: 12px;line-height: 18px;white-space: pre;&quot;&gt;&lt;div&gt;&lt;span style=&quot;color: #3b3b3b;&quot;&gt;150.100.210.22:36010&lt;/span&gt;&lt;/div&gt;&lt;div&gt;&lt;span style=&quot;color: #3b3b3b;&quot;&gt;&lt;/span&gt;&lt;/div&gt;&lt;/div&gt;" style="text;html=1;align=center;verticalAlign=middle;whiteSpace=wrap;rounded=0;" vertex="1" parent="1">
          <mxGeometry x="260" y="665" width="160" height="30" as="geometry" />
        </mxCell>
        <mxCell id="Ff5ZT78EmFI4TPjBJLDV-56" value="" style="curved=1;endArrow=classic;html=1;rounded=0;entryX=0;entryY=0.5;entryDx=0;entryDy=0;exitX=1;exitY=0.5;exitDx=0;exitDy=0;" edge="1" parent="1" source="Ff5ZT78EmFI4TPjBJLDV-50" target="Ff5ZT78EmFI4TPjBJLDV-3">
          <mxGeometry width="50" height="50" relative="1" as="geometry">
            <mxPoint x="385" y="390" as="sourcePoint" />
            <mxPoint x="435" y="340" as="targetPoint" />
          </mxGeometry>
        </mxCell>
        <mxCell id="Ff5ZT78EmFI4TPjBJLDV-57" value="En esta comunicacion es donde aparecen los Zero Window" style="text;html=1;align=center;verticalAlign=middle;whiteSpace=wrap;rounded=0;" vertex="1" parent="1">
          <mxGeometry x="457" y="340" width="60" height="30" as="geometry" />
        </mxCell>
        <mxCell id="Ff5ZT78EmFI4TPjBJLDV-58" value="En esta comunicacion es donde aparecen los Zero Window" style="text;html=1;align=center;verticalAlign=middle;whiteSpace=wrap;rounded=0;" vertex="1" parent="1">
          <mxGeometry x="350" y="250" width="60" height="30" as="geometry" />
        </mxCell>
      </root>
    </mxGraphModel>
  </diagram>
</mxfile>
